<?xml version="1.0"?>
<svg xmlns="http://www.w3.org/2000/svg" width="300" height="40" viewBox="0 0 90 12">
<title>Formula 1 logo</title>
  <path
     d="m 86.431934,1.0738236 c -1.357,1.344 -2.438,2.0650003 -4.384,2.0650003 l -1.667,2.321 h 2.497 l -2.354,3.447 h -2.072 l -1.955,2.7530001 h 8.076 l 1.957,-2.7530001 h -2.328 l 5.422,-7.8330003 h -3.192 z"
     style="fill:#ed1f24;stroke:none" />
  <path
     style="fill:#000000;stroke:none"
     d="m 65.566934,1.6288236 -3.460997,0 -7.015,10.0270004 3.461,0 z" />
  <path
     d="m 48.815937,11.868824 c 1.242,0 3.615,0.018 5.497,-2.626 0.778,-1.1080001 3.705,-5.2640001 3.705,-5.2640001 h -3.452 c 0,0 -3.001,4.291 -3.271,4.673 -0.88,1.2620001 -2.047,0.6740001 -1.49,-0.12 0.301,-0.421 3.191,-4.554 3.191,-4.554 h -3.479 c 0,0 -2.276,3.188 -2.902,4.094 -1.619,2.3380001 0.109,3.7970001 2.201,3.7970001 z"
     style="fill:#000000;stroke:none" />
  <path
     d="M 0.09093719,11.655824 H 3.9139372 L 6.3499373,8.1768239 h 3.119 l 1.9929997,-2.845 H 8.3379373 l 1.511,-2.154 c 2.3999997,0 3.4519997,-0.5520003 5.3129997,-2.7870003 H 7.9919373 L 0.09093719,11.655824 z"
     style="fill:#000000;stroke:none" />
  <path
     d="m 18.420937,3.6528239 c -2.154,0 -4.563,1.348 -5.986,3.438 -1.516,2.2230001 -1.312,4.7500001 1.719,4.7500001 2.936,0 5.388,-1.97 6.472,-3.9990001 1.317,-2.465 0.561,-4.189 -2.205,-4.189 z m -3.312,5.7320001 c -1.572,-0.181 1.056,-3.8180001 2.432,-3.4520001 1.515,0.403 -1.066,3.6150001 -2.432,3.4520001 z"
     style="fill:#000000;stroke:none" />
  <path
     d="m 26.074937,7.8428239 c 0.677,-0.964 2.47,-2.104 3.606,-0.611 l 2.665,-2.66 c 0,0 -0.857,-1.9730003 -4.325,0.504 l 0.729,-1.097 h -3.426 l -5.375,7.6770001 h 3.438 c 0.001,0 2.41,-3.4150001 2.688,-3.8130001 z"
     style="fill:#000000;stroke:none" />
  <path
     d="m 38.853937,11.651824 h 3.375 c 0,0 3.082,-4.3750001 3.493,-4.9720001 1.76,-2.541 -1.307,-3.9200003 -4.16,-1.71 -0.57,-1.844 -2.934,-1.039 -4.583,0.19 l 0.819,-1.167 h -3.418 l -5.366,7.6630001 h 3.354 c 0,0 2.975,-4.2170001 3.262,-4.6320001 0.722,-1.039 2.108,-0.817 1.542,0 -0.269,0.384 -3.239,4.6280001 -3.239,4.6280001 l 3.377,0.004 c 0,0 2.961,-4.2170001 3.253,-4.6320001 0.724,-1.039 2.122,-0.817 1.554,0 -0.268,0.384 -3.263,4.6280001 -3.263,4.6280001 z"
     style="fill:#000000;stroke:none" />
  <path
     d="m 70.008934,11.655824 5.375,-7.6640001 h -3.502 l -0.477,0.615 c -0.15,-0.398 -0.695,-0.867 -1.663,-0.867 -3.018,0 -5.468,2.215 -6.422,4.343 -0.954997,2.1220001 -0.316,3.7620001 1.561,3.7620001 1.18,0 2.219,-0.724 2.585,-0.968 l -0.552,0.778 h 3.095 z m -3.153,-2.196 c -0.78,-0.088 -0.816,-0.8660001 -0.122,-1.8620001 0.636,-0.9 1.859,-1.78 2.554,-1.59 1.515,0.402 -1.065,3.5940001 -2.432,3.4520001 z"
     style="fill:#000000;stroke:none" />
</svg>